<svg width="46" height="34" viewBox="0 0 46 34" fill="none" xmlns="http://www.w3.org/2000/svg" xmlns:xlink="http://www.w3.org/1999/xlink">
<path d="M44.5,17C44.5,17.497 44.302,17.974 43.951,18.326C43.599,18.677 43.122,18.875 42.625,18.875L1.375,18.875C0.878,18.875 0.401,18.677 0.049,18.326C-0.302,17.974 -0.5,17.497 -0.5,17C-0.5,16.503 -0.302,16.026 0.049,15.674C0.401,15.323 0.878,15.125 1.375,15.125L42.625,15.125C43.122,15.125 43.599,15.323 43.951,15.674C44.302,16.026 44.5,16.503 44.5,17ZM1.375,3.875L42.625,3.875C43.122,3.875 43.599,3.677 43.951,3.326C44.302,2.974 44.5,2.497 44.5,2C44.5,1.503 44.302,1.026 43.951,0.674C43.599,0.323 43.122,0.125 42.625,0.125L1.375,0.125C0.878,0.125 0.401,0.323 0.049,0.674C-0.302,1.026 -0.5,1.503 -0.5,2C-0.5,2.497 -0.302,2.974 0.049,3.326C0.401,3.677 0.878,3.875 1.375,3.875ZM42.625,30.125L1.375,30.125C0.878,30.125 0.401,30.323 0.049,30.674C-0.302,31.026 -0.5,31.503 -0.5,32C-0.5,32.497 -0.302,32.974 0.049,33.326C0.401,33.677 0.878,33.875 1.375,33.875L42.625,33.875C43.122,33.875 43.599,33.677 43.951,33.326C44.302,32.974 44.5,32.497 44.5,32C44.5,31.503 44.302,31.026 43.951,30.674C43.599,30.323 43.122,30.125 42.625,30.125Z" fill="#FFFFFF"/>
</svg>
