<svg width="32" height="26" viewBox="0 0 32 26" fill="none" xmlns="http://www.w3.org/2000/svg" xmlns:xlink="http://www.w3.org/1999/xlink">
<path d="M31.609,13.92L19.609,25.619C19.359,25.863 19.02,26 18.666,26C18.312,26 17.973,25.863 17.723,25.619C17.473,25.375 17.332,25.044 17.332,24.699C17.332,24.354 17.473,24.024 17.723,23.78L27.447,14.3L1.333,14.3C0.98,14.3 0.641,14.163 0.391,13.919C0.14,13.675 0,13.345 0,13C0,12.655 0.14,12.325 0.391,12.081C0.641,11.837 0.98,11.7 1.333,11.7L27.447,11.7L17.723,2.22C17.473,1.976 17.332,1.646 17.332,1.301C17.332,0.956 17.473,0.625 17.723,0.381C17.973,0.137 18.312,0 18.666,0C19.02,0 19.359,0.137 19.609,0.381L31.609,12.08C31.733,12.201 31.831,12.344 31.898,12.502C31.965,12.66 32,12.829 32,13C32,13.171 31.965,13.34 31.898,13.498C31.831,13.656 31.733,13.799 31.609,13.92Z" transform="rotate(-360 16 13)" fill="#000000"/>
</svg>
