<svg width="38" height="32" viewBox="0 0 38 32" fill="none" xmlns="http://www.w3.org/2000/svg" xmlns:xlink="http://www.w3.org/1999/xlink">
<path d="M35.561,17.061L22.061,30.561C21.78,30.843 21.398,31.001 21,31.001C20.602,31.001 20.22,30.843 19.939,30.561C19.657,30.28 19.499,29.898 19.499,29.5C19.499,29.102 19.657,28.72 19.939,28.439L30.879,17.5L1.5,17.5C1.102,17.5 0.721,17.342 0.439,17.061C0.158,16.779 0,16.398 0,16C0,15.602 0.158,15.221 0.439,14.939C0.721,14.658 1.102,14.5 1.5,14.5L30.879,14.5L19.939,3.561C19.657,3.28 19.499,2.898 19.499,2.5C19.499,2.102 19.657,1.72 19.939,1.439C20.22,1.157 20.602,0.999 21,0.999C21.398,0.999 21.78,1.157 22.061,1.439L35.561,14.939C35.701,15.078 35.811,15.243 35.887,15.425C35.962,15.608 36.001,15.803 36.001,16C36.001,16.197 35.962,16.392 35.887,16.574C35.811,16.756 35.701,16.922 35.561,17.061Z" fill="#000000"/>
</svg>
