<svg width="100" height="76" viewBox="0 0 100 76" fill="none" xmlns="http://www.w3.org/2000/svg" xmlns:xlink="http://www.w3.org/1999/xlink">
<path d="M95.714,11.914L75.496,0.891C75.037,0.637 74.523,0.503 73.999,0.5L61.499,0.5C60.671,0.5 59.876,0.829 59.29,1.415C58.704,2.001 58.374,2.796 58.374,3.625C58.374,6.111 57.387,8.496 55.629,10.254C53.87,12.012 51.486,13 48.999,13C46.513,13 44.128,12.012 42.37,10.254C40.612,8.496 39.624,6.111 39.624,3.625C39.624,2.796 39.295,2.001 38.709,1.415C38.123,0.829 37.328,0.5 36.499,0.5L23.999,0.5C23.475,0.502 22.959,0.637 22.499,0.891L2.285,11.914C0.844,12.676 -0.237,13.978 -0.719,15.534C-1.202,17.091 -1.047,18.776 -0.29,20.219L7.238,34.598C7.785,35.631 8.606,36.495 9.61,37.095C10.614,37.695 11.763,38.008 12.933,38L20.874,38L20.874,69.25C20.874,70.908 21.533,72.497 22.705,73.669C23.877,74.842 25.467,75.5 27.124,75.5L70.874,75.5C72.532,75.5 74.122,74.842 75.294,73.669C76.466,72.497 77.124,70.908 77.124,69.25L77.124,38L85.07,38C86.239,38.008 87.389,37.695 88.393,37.095C89.397,36.495 90.218,35.631 90.765,34.598L98.292,20.219C99.05,18.775 99.204,17.09 98.72,15.533C98.237,13.977 97.156,12.675 95.714,11.914ZM12.933,31.75C12.875,31.753 12.819,31.735 12.773,31.699L5.285,17.398L20.874,8.891L20.874,31.75L12.933,31.75ZM70.874,69.25L27.124,69.25L27.124,6.75L33.687,6.75C34.408,10.278 36.325,13.449 39.115,15.726C41.904,18.003 45.395,19.246 48.996,19.246C52.596,19.246 56.087,18.003 58.876,15.726C61.666,13.449 63.583,10.278 64.304,6.75L70.874,6.75L70.874,69.25ZM85.23,31.695C85.208,31.715 85.183,31.73 85.155,31.739C85.128,31.748 85.099,31.752 85.07,31.75L77.124,31.75L77.124,8.891L92.718,17.398L85.23,31.695Z" fill="#000000"/>
</svg>
