<svg width="46" height="34" viewBox="0 0 46 34" fill="none" xmlns="http://www.w3.org/2000/svg" xmlns:xlink="http://www.w3.org/1999/xlink">
<path d="M44.5,16C44.5,16.497 44.302,16.974 43.951,17.326C43.599,17.677 43.122,17.875 42.625,17.875L1.375,17.875C0.878,17.875 0.401,17.677 0.049,17.326C-0.302,16.974 -0.5,16.497 -0.5,16C-0.5,15.503 -0.302,15.026 0.049,14.674C0.401,14.323 0.878,14.125 1.375,14.125L42.625,14.125C43.122,14.125 43.599,14.323 43.951,14.674C44.302,15.026 44.5,15.503 44.5,16ZM1.375,2.875L42.625,2.875C43.122,2.875 43.599,2.677 43.951,2.326C44.302,1.974 44.5,1.497 44.5,1C44.5,0.503 44.302,0.026 43.951,-0.326C43.599,-0.677 43.122,-0.875 42.625,-0.875L1.375,-0.875C0.878,-0.875 0.401,-0.677 0.049,-0.326C-0.302,0.026 -0.5,0.503 -0.5,1C-0.5,1.497 -0.302,1.974 0.049,2.326C0.401,2.677 0.878,2.875 1.375,2.875ZM42.625,29.125L1.375,29.125C0.878,29.125 0.401,29.323 0.049,29.674C-0.302,30.026 -0.5,30.503 -0.5,31C-0.5,31.497 -0.302,31.974 0.049,32.326C0.401,32.677 0.878,32.875 1.375,32.875L42.625,32.875C43.122,32.875 43.599,32.677 43.951,32.326C44.302,31.974 44.5,31.497 44.5,31C44.5,30.503 44.302,30.026 43.951,29.674C43.599,29.323 43.122,29.125 42.625,29.125Z" fill="#FFFFFF"/>
</svg>
