<svg width="100" height="76" viewBox="0 0 100 76" fill="none" xmlns="http://www.w3.org/2000/svg" xmlns:xlink="http://www.w3.org/1999/xlink">
<path d="M95.717,11.914L75.499,0.891C75.04,0.637 74.526,0.503 74.002,0.5L61.502,0.5C60.674,0.5 59.879,0.829 59.293,1.415C58.707,2.001 58.377,2.796 58.377,3.625C58.377,6.111 57.39,8.496 55.632,10.254C53.873,12.012 51.489,13 49.002,13C46.516,13 44.131,12.012 42.373,10.254C40.615,8.496 39.627,6.111 39.627,3.625C39.627,2.796 39.298,2.001 38.712,1.415C38.126,0.829 37.331,0.5 36.502,0.5L24.002,0.5C23.478,0.502 22.962,0.637 22.502,0.891L2.288,11.914C0.847,12.676 -0.234,13.978 -0.716,15.534C-1.199,17.091 -1.044,18.776 -0.287,20.219L7.241,34.598C7.788,35.631 8.608,36.495 9.613,37.095C10.617,37.695 11.766,38.008 12.936,38L20.877,38L20.877,69.25C20.877,70.908 21.536,72.497 22.708,73.669C23.88,74.842 25.47,75.5 27.127,75.5L70.877,75.5C72.535,75.5 74.125,74.842 75.297,73.669C76.469,72.497 77.127,70.908 77.127,69.25L77.127,38L85.073,38C86.242,38.008 87.392,37.695 88.396,37.095C89.4,36.495 90.221,35.631 90.768,34.598L98.295,20.219C99.053,18.775 99.207,17.09 98.723,15.533C98.24,13.977 97.159,12.675 95.717,11.914ZM12.936,31.75C12.878,31.753 12.822,31.735 12.776,31.699L5.288,17.398L20.877,8.891L20.877,31.75L12.936,31.75ZM70.877,69.25L27.127,69.25L27.127,6.75L33.69,6.75C34.411,10.278 36.328,13.449 39.118,15.726C41.907,18.003 45.398,19.246 48.999,19.246C52.599,19.246 56.09,18.003 58.879,15.726C61.669,13.449 63.586,10.278 64.307,6.75L70.877,6.75L70.877,69.25ZM85.233,31.695C85.211,31.715 85.186,31.73 85.158,31.739C85.131,31.748 85.102,31.752 85.073,31.75L77.127,31.75L77.127,8.891L92.721,17.398L85.233,31.695Z" fill="#000000"/>
</svg>
