<svg width="42" height="28" viewBox="0 0 42 28" fill="none" xmlns="http://www.w3.org/2000/svg" xmlns:xlink="http://www.w3.org/1999/xlink">
<path d="M40.506,13.443C40.446,13.307 38.99,10.078 35.754,6.841C31.442,2.529 25.995,0.25 20,0.25C14.005,0.25 8.558,2.529 4.246,6.841C1.01,10.078 -0.453,13.313 -0.506,13.443C-0.585,13.619 -0.625,13.809 -0.625,14.002C-0.625,14.194 -0.585,14.384 -0.506,14.56C-0.446,14.696 1.01,17.924 4.246,21.16C8.558,25.471 14.005,27.75 20,27.75C25.995,27.75 31.442,25.471 35.754,21.16C38.99,17.924 40.446,14.696 40.506,14.56C40.585,14.384 40.625,14.194 40.625,14.002C40.625,13.809 40.585,13.619 40.506,13.443ZM20,25C14.71,25 10.088,23.077 6.262,19.285C4.692,17.724 3.357,15.944 2.297,14C3.356,12.056 4.692,10.276 6.262,8.715C10.088,4.923 14.71,3 20,3C25.29,3 29.912,4.923 33.738,8.715C35.311,10.275 36.649,12.056 37.712,14C36.472,16.313 31.074,25 20,25ZM20,5.75C18.368,5.75 16.773,6.234 15.417,7.14C14.06,8.047 13.002,9.335 12.378,10.843C11.754,12.35 11.59,14.009 11.909,15.609C12.227,17.21 13.013,18.68 14.166,19.834C15.32,20.987 16.79,21.773 18.39,22.091C19.991,22.41 21.65,22.246 23.157,21.622C24.665,20.998 25.953,19.94 26.86,18.583C27.766,17.227 28.25,15.632 28.25,14C28.248,11.813 27.378,9.716 25.831,8.169C24.284,6.622 22.187,5.752 20,5.75ZM20,19.5C18.912,19.5 17.849,19.177 16.944,18.573C16.04,17.969 15.335,17.11 14.919,16.105C14.502,15.1 14.393,13.994 14.606,12.927C14.818,11.86 15.342,10.88 16.111,10.111C16.88,9.342 17.86,8.818 18.927,8.606C19.994,8.393 21.1,8.502 22.105,8.919C23.11,9.335 23.969,10.04 24.573,10.944C25.177,11.849 25.5,12.912 25.5,14C25.5,15.459 24.921,16.858 23.889,17.889C22.858,18.921 21.459,19.5 20,19.5Z" fill="#000000"/>
</svg>
