<svg width="38" height="30" viewBox="0 0 38 30" fill="none" xmlns="http://www.w3.org/2000/svg" xmlns:xlink="http://www.w3.org/1999/xlink">
<path d="M35.561,15.062L22.061,28.562C21.78,28.844 21.398,29.002 21,29.002C20.602,29.002 20.22,28.844 19.939,28.562C19.657,28.281 19.499,27.899 19.499,27.501C19.499,27.103 19.657,26.721 19.939,26.44L30.879,15.501L1.5,15.501C1.102,15.501 0.721,15.343 0.439,15.061C0.158,14.78 0,14.399 0,14.001C0,13.603 0.158,13.221 0.439,12.94C0.721,12.659 1.102,12.501 1.5,12.501L30.879,12.501L19.939,1.562C19.657,1.281 19.499,0.899 19.499,0.501C19.499,0.103 19.657,-0.279 19.939,-0.56C20.22,-0.842 20.602,-1 21,-1C21.398,-1 21.78,-0.842 22.061,-0.56L35.561,12.94C35.701,13.079 35.811,13.244 35.887,13.426C35.962,13.609 36.001,13.804 36.001,14.001C36.001,14.198 35.962,14.393 35.887,14.575C35.811,14.757 35.701,14.923 35.561,15.062Z" fill="#000000"/>
</svg>
