<svg width="36" height="30" viewBox="0 0 36 30" fill="none" xmlns="http://www.w3.org/2000/svg" xmlns:xlink="http://www.w3.org/1999/xlink">
<path d="M35.56,16.06L22.06,29.56C21.779,29.842 21.397,30 20.999,30C20.601,30 20.219,29.842 19.938,29.56C19.656,29.279 19.498,28.897 19.498,28.499C19.498,28.101 19.656,27.719 19.938,27.438L30.878,16.499L1.499,16.499C1.101,16.499 0.719,16.341 0.438,16.06C0.157,15.779 -0.001,15.397 -0.001,14.999C-0.001,14.601 0.157,14.22 0.438,13.939C0.719,13.657 1.101,13.499 1.499,13.499L30.878,13.499L19.938,2.56C19.656,2.279 19.498,1.897 19.498,1.499C19.498,1.101 19.656,0.719 19.938,0.438C20.219,0.156 20.601,-0.002 20.999,-0.002C21.397,-0.002 21.779,0.156 22.06,0.438L35.56,13.938C35.7,14.077 35.81,14.243 35.886,14.425C35.961,14.607 36,14.802 36,14.999C36,15.196 35.961,15.391 35.886,15.574C35.81,15.756 35.7,15.921 35.56,16.06Z" transform="rotate(-360 17.999 14.999)" fill="#000000"/>
</svg>
