<svg width="28" height="16" viewBox="0 0 28 16" fill="none" xmlns="http://www.w3.org/2000/svg" xmlns:xlink="http://www.w3.org/1999/xlink">
<path d="M27.385,1.885L14.885,14.385C14.769,14.501 14.631,14.594 14.479,14.656C14.328,14.719 14.165,14.752 14.001,14.752C13.836,14.752 13.674,14.719 13.522,14.656C13.37,14.594 13.232,14.501 13.116,14.385L0.616,1.885C0.382,1.651 0.25,1.332 0.25,1.001C0.25,0.669 0.382,0.351 0.616,0.116C0.851,-0.118 1.169,-0.25 1.501,-0.25C1.832,-0.25 2.151,-0.118 2.385,0.116L14.001,11.734L25.616,0.116C25.732,0 25.87,-0.092 26.022,-0.155C26.174,-0.218 26.336,-0.25 26.501,-0.25C26.665,-0.25 26.828,-0.218 26.979,-0.155C27.131,-0.092 27.269,0 27.385,0.116C27.501,0.232 27.593,0.37 27.656,0.522C27.719,0.674 27.751,0.836 27.751,1.001C27.751,1.165 27.719,1.328 27.656,1.479C27.593,1.631 27.501,1.769 27.385,1.885Z" fill="#000000"/>
</svg>
