<svg width="34" height="26" viewBox="0 0 34 26" fill="none" xmlns="http://www.w3.org/2000/svg" xmlns:xlink="http://www.w3.org/1999/xlink">
<path d="M32.5,12C32.5,12.365 32.355,12.714 32.097,12.972C31.839,13.23 31.49,13.375 31.125,13.375L0.875,13.375C0.51,13.375 0.161,13.23 -0.097,12.972C-0.355,12.714 -0.5,12.365 -0.5,12C-0.5,11.635 -0.355,11.286 -0.097,11.028C0.161,10.77 0.51,10.625 0.875,10.625L31.125,10.625C31.49,10.625 31.839,10.77 32.097,11.028C32.355,11.286 32.5,11.635 32.5,12ZM0.875,2.375L31.125,2.375C31.49,2.375 31.839,2.23 32.097,1.972C32.355,1.714 32.5,1.365 32.5,1C32.5,0.635 32.355,0.286 32.097,0.028C31.839,-0.23 31.49,-0.375 31.125,-0.375L0.875,-0.375C0.51,-0.375 0.161,-0.23 -0.097,0.028C-0.355,0.286 -0.5,0.635 -0.5,1C-0.5,1.365 -0.355,1.714 -0.097,1.972C0.161,2.23 0.51,2.375 0.875,2.375ZM31.125,21.625L0.875,21.625C0.51,21.625 0.161,21.77 -0.097,22.028C-0.355,22.286 -0.5,22.635 -0.5,23C-0.5,23.365 -0.355,23.714 -0.097,23.972C0.161,24.23 0.51,24.375 0.875,24.375L31.125,24.375C31.49,24.375 31.839,24.23 32.097,23.972C32.355,23.714 32.5,23.365 32.5,23C32.5,22.635 32.355,22.286 32.097,22.028C31.839,21.77 31.49,21.625 31.125,21.625Z" fill="#000000"/>
</svg>
