<svg width="40" height="32" viewBox="0 0 40 32" fill="none" xmlns="http://www.w3.org/2000/svg" xmlns:xlink="http://www.w3.org/1999/xlink">
<path d="M3,27C3,28.105 3.895,29 5,29L7,29C8.105,29 9,28.105 9,27L9,5C9,3.895 8.105,3 7,3L5,3C3.895,3 3,3.895 3,5L3,27ZM5,32C2.239,32 0,29.761 0,27L0,5C0,2.239 2.239,0 5,0L7,0C9.761,0 12,2.239 12,5L12,27C12,29.761 9.761,32 7,32L5,32ZM17,27C17,28.105 17.895,29 19,29L21,29C22.105,29 23,28.105 23,27L23,5C23,3.895 22.105,3 21,3L19,3C17.895,3 17,3.895 17,5L17,27ZM19,32C16.239,32 14,29.761 14,27L14,5C14,2.239 16.239,0 19,0L21,0C23.761,0 26,2.239 26,5L26,27C26,29.761 23.761,32 21,32L19,32ZM33,29C31.895,29 31,28.105 31,27L31,5C31,3.895 31.895,3 33,3L35,3C36.105,3 37,3.895 37,5L37,27C37,28.105 36.105,29 35,29L33,29ZM28,27C28,29.761 30.239,32 33,32L35,32C37.761,32 40,29.761 40,27L40,5C40,2.239 37.761,0 35,0L33,0C30.239,0 28,2.239 28,5L28,27Z" fill="#212121"/>
</svg>
