<svg width="100" height="76" viewBox="0 0 100 76" fill="none" xmlns="http://www.w3.org/2000/svg" xmlns:xlink="http://www.w3.org/1999/xlink">
<path d="M96.717,11.914L76.499,0.891C76.04,0.637 75.526,0.503 75.002,0.5L62.502,0.5C61.674,0.5 60.879,0.829 60.293,1.415C59.707,2.001 59.377,2.796 59.377,3.625C59.377,6.111 58.39,8.496 56.632,10.254C54.873,12.012 52.489,13 50.002,13C47.516,13 45.131,12.012 43.373,10.254C41.615,8.496 40.627,6.111 40.627,3.625C40.627,2.796 40.298,2.001 39.712,1.415C39.126,0.829 38.331,0.5 37.502,0.5L25.002,0.5C24.478,0.502 23.962,0.637 23.502,0.891L3.288,11.914C1.847,12.676 0.766,13.978 0.284,15.534C-0.199,17.091 -0.044,18.776 0.713,20.219L8.241,34.598C8.788,35.631 9.608,36.495 10.613,37.095C11.617,37.695 12.766,38.008 13.936,38L21.877,38L21.877,69.25C21.877,70.908 22.536,72.497 23.708,73.669C24.88,74.842 26.47,75.5 28.127,75.5L71.877,75.5C73.535,75.5 75.125,74.842 76.297,73.669C77.469,72.497 78.127,70.908 78.127,69.25L78.127,38L86.073,38C87.242,38.008 88.392,37.695 89.396,37.095C90.4,36.495 91.221,35.631 91.768,34.598L99.295,20.219C100.053,18.775 100.207,17.09 99.723,15.533C99.24,13.977 98.159,12.675 96.717,11.914ZM13.936,31.75C13.878,31.753 13.822,31.735 13.776,31.699L6.288,17.398L21.877,8.891L21.877,31.75L13.936,31.75ZM71.877,69.25L28.127,69.25L28.127,6.75L34.69,6.75C35.411,10.278 37.328,13.449 40.118,15.726C42.907,18.003 46.398,19.246 49.999,19.246C53.599,19.246 57.09,18.003 59.879,15.726C62.669,13.449 64.586,10.278 65.307,6.75L71.877,6.75L71.877,69.25ZM86.233,31.695C86.211,31.715 86.186,31.73 86.158,31.739C86.131,31.748 86.102,31.752 86.073,31.75L78.127,31.75L78.127,8.891L93.721,17.398L86.233,31.695Z" fill="#000000"/>
</svg>
