<svg width="100" height="76" viewBox="0 0 100 76" fill="none" xmlns="http://www.w3.org/2000/svg" xmlns:xlink="http://www.w3.org/1999/xlink">
<path d="M96.714,11.914L76.496,0.891C76.037,0.637 75.523,0.503 74.999,0.5L62.499,0.5C61.671,0.5 60.876,0.829 60.29,1.415C59.704,2.001 59.374,2.796 59.374,3.625C59.374,6.111 58.387,8.496 56.629,10.254C54.87,12.012 52.486,13 49.999,13C47.513,13 45.128,12.012 43.37,10.254C41.612,8.496 40.624,6.111 40.624,3.625C40.624,2.796 40.295,2.001 39.709,1.415C39.123,0.829 38.328,0.5 37.499,0.5L24.999,0.5C24.475,0.502 23.959,0.637 23.499,0.891L3.285,11.914C1.844,12.676 0.763,13.978 0.281,15.534C-0.202,17.091 -0.047,18.776 0.71,20.219L8.238,34.598C8.785,35.631 9.606,36.495 10.61,37.095C11.614,37.695 12.763,38.008 13.933,38L21.874,38L21.874,69.25C21.874,70.908 22.533,72.497 23.705,73.669C24.877,74.842 26.467,75.5 28.124,75.5L71.874,75.5C73.532,75.5 75.122,74.842 76.294,73.669C77.466,72.497 78.124,70.908 78.124,69.25L78.124,38L86.07,38C87.239,38.008 88.389,37.695 89.393,37.095C90.397,36.495 91.218,35.631 91.765,34.598L99.292,20.219C100.05,18.775 100.204,17.09 99.72,15.533C99.237,13.977 98.156,12.675 96.714,11.914ZM13.933,31.75C13.875,31.753 13.819,31.735 13.773,31.699L6.285,17.398L21.874,8.891L21.874,31.75L13.933,31.75ZM71.874,69.25L28.124,69.25L28.124,6.75L34.687,6.75C35.408,10.278 37.325,13.449 40.115,15.726C42.904,18.003 46.395,19.246 49.996,19.246C53.596,19.246 57.087,18.003 59.876,15.726C62.666,13.449 64.583,10.278 65.304,6.75L71.874,6.75L71.874,69.25ZM86.23,31.695C86.208,31.715 86.183,31.73 86.155,31.739C86.128,31.748 86.099,31.752 86.07,31.75L78.124,31.75L78.124,8.891L93.718,17.398L86.23,31.695Z" fill="#000000"/>
</svg>
